<svg xmlns="http://www.w3.org/2000/svg" width="256" height="256" viewBox="0 0 100 100"><path fill="#4a4a4a" d="M13.46 56.66L13.46 77.18Q12.92 77.36 12.02 77.58Q11.12 77.81 10.04 77.81L10.04 77.81Q6.08 77.81 6.08 74.48L6.08 74.48L6.08 26.60Q6.08 25.16 6.80 24.40Q7.52 23.63 9.05 23.18L9.05 23.18Q11.66 22.37 15.49 22.01Q19.31 21.65 22.91 21.65L22.91 21.65Q34.25 21.65 39.79 26.20Q45.32 30.74 45.32 39.11L45.32 39.11Q45.32 45.32 42.13 49.55Q38.93 53.78 32.45 55.58L32.45 55.58Q34.70 58.46 36.95 61.34Q39.20 64.22 41.23 66.78Q43.25 69.35 44.83 71.42Q46.40 73.49 47.30 74.66L47.30 74.66Q46.94 76.19 45.73 77.09Q44.51 77.99 43.25 77.99L43.25 77.99Q41.72 77.99 40.73 77.27Q39.74 76.55 38.66 75.02L38.66 75.02L25.52 56.66L13.46 56.66ZM13.37 50.54L23.72 50.54Q30.38 50.54 34.16 47.66Q37.94 44.78 37.94 39.11L37.94 39.11Q37.94 33.44 33.98 30.61Q30.02 27.77 22.64 27.77L22.64 27.77Q20.21 27.77 17.74 28.00Q15.26 28.22 13.37 28.58L13.37 28.58L13.37 50.54ZM74.21 72.41L74.21 72.41Q80.24 72.41 83.34 69.67Q86.45 66.92 86.45 62.60L86.45 62.60Q86.45 58.82 84.06 56.48Q81.68 54.14 76.55 52.61L76.55 52.61L68.72 50.27Q62.96 48.56 59.68 45.23Q56.39 41.90 56.39 36.23L56.39 36.23Q56.39 32.81 57.70 30.06Q59.00 27.32 61.43 25.43Q63.86 23.54 67.24 22.51Q70.61 21.47 74.84 21.47L74.84 21.47Q78.44 21.47 81.55 22.05Q84.65 22.64 86.95 23.68Q89.24 24.71 90.50 25.97Q91.76 27.23 91.76 28.58L91.76 28.58Q91.76 29.84 91.13 30.74Q90.50 31.64 89.51 32.18L89.51 32.18Q87.17 30.38 83.44 29.03Q79.70 27.68 75.11 27.68L75.11 27.68Q69.80 27.68 66.79 29.93Q63.77 32.18 63.77 36.23L63.77 36.23Q63.77 39.38 65.93 41.36Q68.09 43.34 73.13 44.78L73.13 44.78L78.62 46.40Q85.73 48.47 89.83 52.20Q93.92 55.94 93.92 62.60L93.92 62.60Q93.92 69.71 88.79 74.12Q83.66 78.53 74.21 78.53L74.21 78.53Q70.07 78.53 66.70 77.81Q63.32 77.09 60.94 75.92Q58.55 74.75 57.25 73.36Q55.94 71.96 55.94 70.61L55.94 70.61Q55.94 69.08 56.89 68.05Q57.83 67.01 59.09 66.56L59.09 66.56Q60.08 67.55 61.52 68.58Q62.96 69.62 64.85 70.47Q66.74 71.33 69.08 71.87Q71.42 72.41 74.21 72.41Z"></path></svg>